<svg width="46" height="46" viewBox="0 0 46 46" fill="none" xmlns="http://www.w3.org/2000/svg">
<rect width="46" height="46" rx="23" fill="#121212" fill-opacity="0.05"/>
<path d="M30.5737 23.7628C30.5617 21.5655 31.5556 19.9071 33.5672 18.6858C32.4417 17.0752 30.7413 16.1892 28.4962 16.0155C26.3708 15.8479 24.0478 17.2549 23.1976 17.2549C22.2996 17.2549 20.24 16.0754 18.6235 16.0754C15.2827 16.1293 11.7324 18.7397 11.7324 24.0502C11.7324 25.6188 12.0198 27.2393 12.5946 28.9117C13.3609 31.1089 16.1269 36.4973 19.0127 36.4075C20.5214 36.3715 21.5871 35.3358 23.5509 35.3358C25.4548 35.3358 26.4426 36.4075 28.125 36.4075C31.0347 36.3655 33.5373 31.4681 34.2677 29.2649C30.3641 27.4269 30.5737 23.8765 30.5737 23.7628ZM27.185 13.932C28.8195 11.9922 28.6698 10.2261 28.6219 9.59143C27.179 9.67525 25.5086 10.5733 24.5567 11.6809C23.509 12.8664 22.8923 14.3332 23.024 15.9856C24.5866 16.1053 26.0116 15.3031 27.185 13.932Z" fill="black"/>
</svg>
