<svg width="46" height="46" viewBox="0 0 46 46" fill="none" xmlns="http://www.w3.org/2000/svg">
<rect width="46" height="46" rx="23" fill="#121212" fill-opacity="0.05"/>
<path d="M35 23C35 16.3719 29.6281 11 23 11C16.3719 11 11 16.3719 11 23C11 28.9902 15.3856 33.9547 21.1259 34.8552V26.4716H18.0814V23H21.1259V20.3567C21.1259 17.3516 22.9142 15.6884 25.6564 15.6884C26.9713 15.6884 28.3456 15.9252 28.3456 15.9252V18.8773H26.8334C25.3409 18.8773 24.8806 19.8045 24.8806 20.7514V23H28.2078L27.6753 26.4716H24.8806V34.8552C30.6144 33.9547 35 28.9902 35 23Z" fill="#1877F2"/>
<path d="M27.6684 26.4716L28.2014 23H24.8742V20.7514C24.8742 19.8046 25.341 18.8774 26.827 18.8774H28.3392V15.9252C28.3392 15.9252 26.9648 15.6885 25.65 15.6885C22.9082 15.6885 21.1195 17.3521 21.1195 20.3568V23H18.075V26.4716H21.1195V34.8552C21.7312 34.9536 22.3556 35 22.9935 35C23.6315 35 24.2559 34.9475 24.8676 34.8552V26.4716H27.6684Z" fill="white"/>
</svg>
