<svg width="46" height="46" viewBox="0 0 46 46" fill="none" xmlns="http://www.w3.org/2000/svg">
<rect width="46" height="46" rx="23" fill="#121212" fill-opacity="0.05"/>
<path d="M35 23.2659C35 22.282 34.9183 21.5641 34.7415 20.8196H23.2449V25.2601H29.9931C29.8571 26.3637 29.1224 28.0256 27.4897 29.1423L27.4669 29.291L31.1019 32.0428L31.3537 32.0674C33.6666 29.98 35 26.9088 35 23.2659Z" fill="#4285F4"/>
<path d="M23.245 34.9656C26.551 34.9656 29.3265 33.9019 31.3538 32.0673L27.4898 29.1422C26.4558 29.8469 25.068 30.3388 23.245 30.3388C20.0069 30.3388 17.2586 28.2515 16.2789 25.3665L16.1353 25.3784L12.3556 28.2369L12.3062 28.3711C14.3197 32.2799 18.4558 34.9656 23.245 34.9656Z" fill="#34A853"/>
<path d="M16.2789 25.3666C16.0204 24.6221 15.8708 23.8243 15.8708 23.0001C15.8708 22.1757 16.0204 21.378 16.2653 20.6335L16.2584 20.475L12.4313 17.5706L12.3061 17.6288C11.4762 19.2508 11 21.0723 11 23.0001C11 24.9279 11.4762 26.7493 12.3061 28.3713L16.2789 25.3666Z" fill="#FBBC05"/>
<path d="M23.245 15.6609C25.5442 15.6609 27.0952 16.6314 27.9796 17.4425L31.4354 14.1453C29.313 12.2175 26.551 11.0342 23.245 11.0342C18.4558 11.0342 14.3197 13.7198 12.3062 17.6286L16.2653 20.6333C17.2586 17.7483 20.0069 15.6609 23.245 15.6609Z" fill="#EB4335"/>
</svg>
